<svg width="466" height="512" viewBox="0 0 466 512" fill="none" xmlns="http://www.w3.org/2000/svg">
<path d="M93.5 11V240.5H11.5C2.69993 240.5 0.499946 247.833 0.49996 251.5V306C0.49996 315.6 7.83329 318 11.5 318H93.5V360.5H11.5C2.29996 360.5 0.333293 368.167 0.49996 372V419.5C0.49996 427.5 7.83329 430.167 11.5 430.5H93.5V500C93.5 509.2 100.833 511.5 104.5 511.5C120.833 511.667 155.9 511.9 165.5 511.5C175.1 511.1 177.5 503.667 177.5 500V430.5H361.5C371.5 430.5 373 421.833 372.5 417.5V373C372.5 363.4 365.167 360.667 361.5 360.5H177.5V318V0.5H101.5C95.9 2.1 93.8333 8.16667 93.5 11Z" fill="black"/>
<path d="M177.5 240V318H317.5C367 315 466 279 466 159C466 39 367 3.33333 317.5 0.5H177.5V77H304.5C329.5 79 379.5 98.2 379.5 159C379.5 219.8 329.5 238.333 304.5 240H177.5Z" fill="black"/>
</svg>
